<svg xmlns="http://www.w3.org/2000/svg" fill="none" viewBox="39 39 667 197">
<path d="M328.03 153.39C328.03 159.17 327.35 164.61 325.99 169.71C324.743 174.81 322.477 179.287 319.19 183.14C316.017 186.88 311.653 189.883 306.1 192.15C300.66 194.303 293.747 195.38 285.36 195.38C277.653 195.38 271.023 194.473 265.47 192.66C259.917 190.733 255.327 188.523 251.7 186.03L260.54 165.46C263.827 167.387 267.34 169.087 271.08 170.56C274.82 172.033 278.9 172.77 283.32 172.77C289.78 172.77 294.427 171.183 297.26 168.01C300.093 164.837 301.51 159.51 301.51 152.03V75.19H328.03V153.39ZM377.21 193H351.88V103.58H377.21V193ZM379.59 77.74C379.59 82.3867 378.06 86.07 375 88.79C372.054 91.3967 368.54 92.7 364.46 92.7C360.38 92.7 356.81 91.3967 353.75 88.79C350.804 86.07 349.33 82.3867 349.33 77.74C349.33 73.0933 350.804 69.4667 353.75 66.86C356.81 64.14 360.38 62.78 364.46 62.78C368.54 62.78 372.054 64.14 375 66.86C378.06 69.4667 379.59 73.0933 379.59 77.74ZM401.021 106.64C405.328 105.393 410.881 104.26 417.681 103.24C424.481 102.107 431.621 101.54 439.101 101.54C446.694 101.54 452.984 102.56 457.971 104.6C463.071 106.527 467.094 109.303 470.041 112.93C472.988 116.557 475.084 120.863 476.331 125.85C477.578 130.837 478.201 136.39 478.201 142.51V193H452.871V145.57C452.871 137.41 451.794 131.63 449.641 128.23C447.488 124.83 443.464 123.13 437.571 123.13C435.758 123.13 433.831 123.243 431.791 123.47C429.751 123.583 427.938 123.753 426.351 123.98V193H401.021V106.64ZM492.799 224.45C491.212 224.45 488.889 224.28 485.829 223.94C482.655 223.6 479.709 222.977 476.989 222.07L480.389 201.5C482.089 202.067 483.675 202.463 485.149 202.69C486.509 202.917 488.265 203.03 490.419 203.03C494.385 203.03 497.162 201.84 498.749 199.46C500.335 197.08 501.129 193.623 501.129 189.09V103.58H526.459V189.77C526.459 201.557 523.569 210.283 517.789 215.95C512.009 221.617 503.679 224.45 492.799 224.45ZM528.839 77.74C528.839 82.3867 527.309 86.07 524.249 88.79C521.302 91.3967 517.789 92.7 513.709 92.7C509.629 92.7 506.059 91.3967 502.999 88.79C500.052 86.07 498.579 82.3867 498.579 77.74C498.579 73.0933 500.052 69.4667 502.999 66.86C506.059 64.14 509.629 62.78 513.709 62.78C517.789 62.78 521.302 64.14 524.249 66.86C527.309 69.4667 528.839 73.0933 528.839 77.74ZM584.439 175.32C586.932 175.32 589.312 175.263 591.579 175.15C593.846 175.037 595.659 174.867 597.019 174.64V155.43C595.999 155.203 594.469 154.977 592.429 154.75C590.389 154.523 588.519 154.41 586.819 154.41C584.439 154.41 582.172 154.58 580.019 154.92C577.979 155.147 576.166 155.657 574.579 156.45C572.992 157.243 571.746 158.32 570.839 159.68C569.932 161.04 569.479 162.74 569.479 164.78C569.479 168.747 570.782 171.523 573.389 173.11C576.109 174.583 579.792 175.32 584.439 175.32ZM582.399 101.2C589.879 101.2 596.112 102.05 601.099 103.75C606.086 105.45 610.052 107.887 612.999 111.06C616.059 114.233 618.212 118.087 619.459 122.62C620.706 127.153 621.329 132.197 621.329 137.75V190.45C617.702 191.243 612.659 192.15 606.199 193.17C599.739 194.303 591.919 194.87 582.739 194.87C576.959 194.87 571.689 194.36 566.929 193.34C562.282 192.32 558.259 190.677 554.859 188.41C551.459 186.03 548.852 182.97 547.039 179.23C545.226 175.49 544.319 170.9 544.319 165.46C544.319 160.247 545.339 155.827 547.379 152.2C549.532 148.573 552.366 145.683 555.879 143.53C559.392 141.377 563.416 139.847 567.949 138.94C572.482 137.92 577.186 137.41 582.059 137.41C585.346 137.41 588.236 137.58 590.729 137.92C593.336 138.147 595.432 138.487 597.019 138.94V136.56C597.019 132.253 595.716 128.797 593.109 126.19C590.502 123.583 585.969 122.28 579.509 122.28C575.202 122.28 570.952 122.62 566.759 123.3C562.566 123.867 558.939 124.717 555.879 125.85L552.649 105.45C554.122 104.997 555.936 104.543 558.089 104.09C560.356 103.523 562.792 103.07 565.399 102.73C568.006 102.277 570.726 101.937 573.559 101.71C576.506 101.37 579.452 101.2 582.399 101.2ZM643.384 81.31L668.714 77.23V103.58H699.144V124.66H668.714V156.11C668.714 161.437 669.621 165.687 671.434 168.86C673.361 172.033 677.157 173.62 682.824 173.62C685.544 173.62 688.321 173.393 691.154 172.94C694.101 172.373 696.764 171.637 699.144 170.73L702.714 190.45C699.654 191.697 696.254 192.773 692.514 193.68C688.774 194.587 684.184 195.04 678.744 195.04C671.831 195.04 666.107 194.133 661.574 192.32C657.041 190.393 653.414 187.787 650.694 184.5C647.974 181.1 646.047 177.02 644.914 172.26C643.894 167.5 643.384 162.23 643.384 156.45V81.31Z" fill="#0D0D0D"/>
<rect x="62.2589" y="80.805" width="146.586" height="52.1934" rx="23.5" fill="#DCBB0E"/>
<path d="M130.384 45.092C129.638 45.1313 127.596 45.2883 125.869 45.465C104.415 47.5653 84.5109 56.9871 69.2396 72.2388C36.4594 105.039 32.828 156.918 60.7207 193.938C80.8403 220.633 113.562 234.432 146.774 230.232C180.496 225.972 209.292 203.497 221.658 171.757C232.984 142.707 228.921 109.632 210.901 84.2713C201.911 71.6107 189.899 61.3447 176.119 54.5728C161.849 47.5652 146.578 44.405 130.384 45.092ZM140.493 80.6792C152.918 81.9158 167.737 86.6464 182.498 94.0269C189.977 97.776 198.359 102.703 204.444 106.943L206.269 108.199L204.934 109.18C196.062 115.697 184.049 121.841 173.567 125.237C152.113 132.166 129.029 132.519 104.474 126.277C90.6352 122.764 75.5209 116.62 64.0772 109.867L61.3685 108.258L61.9181 107.806C63.0369 106.884 71.0062 101.682 74.1076 99.837C86.5916 92.4173 99.0756 86.9016 110.539 83.7217C117.586 81.7784 121.59 81.0914 129.697 80.4044C131.188 80.267 138.314 80.4633 140.493 80.6792Z" fill="#0D0D0D"/>
<path d="M104.336 91.4751C98.6241 92.5154 94.031 96.7749 92.5784 102.35C92.1073 104.136 92.0877 107.532 92.5195 109.318C93.0495 111.497 94.4235 114.048 95.9742 115.717C101.922 122.096 111.461 122.155 117.37 115.835C119.077 114.009 120.059 112.242 120.785 109.769C121.256 108.101 121.296 107.708 121.217 105.451C121.06 101.231 119.902 98.5611 116.938 95.5972C115.112 93.7521 113.287 92.6528 110.755 91.8677C109.204 91.3966 105.867 91.1807 104.336 91.4751Z" fill="#0D0D0D"/>
<path d="M159.12 91.5536C156.215 92.1621 153.84 93.4576 151.701 95.6168C148.619 98.6789 147.225 102.31 147.422 106.589C147.736 112.91 151.779 118.053 157.962 119.957C159.866 120.546 163.655 120.604 165.578 120.074C169.779 118.936 173.292 116.031 175.118 112.223C176.178 110.005 176.492 108.592 176.492 105.902C176.492 103.233 176.178 101.8 175.138 99.6211C173.332 95.8523 169.72 92.8491 165.716 91.7695C164.047 91.3377 160.73 91.2199 159.12 91.5536Z" fill="#0D0D0D"/>
<path d="M42 41H703V39H42V41ZM704 42V233H706V42H704ZM703 234H42V236H703V234ZM41 233V42H39V233H41ZM42 234C41.4477 234 41 233.552 41 233H39C39 234.657 40.3432 236 42 236V234ZM704 233C704 233.552 703.552 234 703 234V236C704.657 236 706 234.657 706 233H704ZM703 41C703.552 41 704 41.4477 704 42H706C706 40.3431 704.657 39 703 39V41ZM42 39C40.3431 39 39 40.3431 39 42H41C41 41.4477 41.4477 41 42 41V39Z" fill="white" fill-opacity="0.1"/>
</svg>