<svg width="186" height="186" viewBox="0 0 186 186" fill="none" xmlns="http://www.w3.org/2000/svg">
<path d="M88.3837 0.0920026C87.6378 0.13126 85.5964 0.288298 83.869 0.464959C62.4146 2.56525 42.5109 11.9871 27.2396 27.2388C-5.54063 60.0387 -9.17197 111.918 18.7207 148.938C38.8403 175.633 71.5617 189.432 104.774 185.232C138.496 180.972 167.292 158.497 179.658 126.757C190.984 97.7066 186.921 64.6319 168.901 39.2713C159.911 26.6107 147.899 16.3447 134.119 9.57276C119.849 2.56524 104.578 -0.595009 88.3837 0.0920026ZM98.4926 35.6792C110.918 36.9158 125.737 41.6464 140.498 49.0269C147.977 52.776 156.359 57.7028 162.444 61.9427L164.269 63.1989L162.934 64.1804C154.062 70.6972 142.049 76.841 131.567 80.2368C110.113 87.1658 87.0293 87.5192 62.4735 81.2772C48.6352 77.7636 33.5209 71.6197 22.0772 64.8674L19.3685 63.2578L19.9181 62.8064C21.0369 61.8838 29.0062 56.6821 32.1076 54.837C44.5916 47.4173 57.0756 41.9016 68.5389 38.7217C75.5856 36.7784 79.5899 36.0914 87.6967 35.4044C89.1885 35.267 96.3138 35.4633 98.4926 35.6792Z" fill="#0D0D0D"/>
<path d="M62.3361 46.4751C56.6241 47.5154 52.031 51.7749 50.5784 57.3495C50.1073 59.1358 50.0877 62.5316 50.5195 64.3178C51.0495 66.4966 52.4235 69.0484 53.9742 70.7168C59.9218 77.0962 69.4614 77.1551 75.3697 70.8346C77.0774 69.0091 78.0589 67.2425 78.7852 64.7693C79.2562 63.1008 79.2955 62.7082 79.217 60.4509C79.06 56.2307 77.9019 53.5611 74.9379 50.5972C73.1124 48.7521 71.2869 47.6528 68.7548 46.8677C67.2041 46.3966 63.8672 46.1807 62.3361 46.4751Z" fill="#0D0D0D"/>
<path d="M117.12 46.5536C114.215 47.1621 111.84 48.4576 109.701 50.6168C106.619 53.6789 105.225 57.3103 105.422 61.5894C105.736 67.9099 109.779 73.0526 115.962 74.9566C117.866 75.5455 121.655 75.6044 123.578 75.0744C127.779 73.9359 131.292 71.0309 133.118 67.2229C134.178 65.0048 134.492 63.5915 134.492 60.9024C134.492 58.2328 134.178 56.7999 133.138 54.6211C131.332 50.8523 127.72 47.8491 123.716 46.7695C122.047 46.3377 118.73 46.2199 117.12 46.5536Z" fill="#0D0D0D"/>
</svg>
